<svg version="1.1" id="Layer_1" xmlns="http://www.w3.org/2000/svg" xmlns:xlink="http://www.w3.org/1999/xlink" x="0px" y="0px"
	 width="100%" viewBox="0 0 547 436" enable-background="new 0 0 547 436" xml:space="preserve">
<path fill="#FFFFFF" opacity="1.000000" stroke="none" 
	d="
M0.999997,316.000000 
	C1.000000,211.057007 1.000000,106.114006 1.000000,1.000000 
	C163.354721,1.000000 325.709503,1.000000 488.523712,1.405173 
	C488.653778,3.214040 488.295990,4.611782 488.000671,6.022591 
	C487.241821,9.647637 483.369598,12.260138 480.610443,10.771923 
	C473.103149,6.722718 464.928497,5.362161 456.612854,5.058578 
	C437.539551,4.362261 418.605682,5.196198 400.151367,10.920885 
	C395.386902,12.398851 390.382904,13.270201 385.423340,13.917936 
	C376.081512,15.138022 366.709534,16.502209 357.316254,16.826315 
	C350.685974,17.055086 344.007751,15.571704 337.336731,15.025756 
	C329.174622,14.357776 321.407013,12.313150 313.884735,9.104783 
	C312.151184,8.365402 310.103638,8.362249 308.200592,8.020293 
	C307.945526,8.516075 307.690491,9.011858 307.435425,9.507640 
	C310.519989,12.008099 313.272583,15.207110 316.758179,16.863777 
	C324.044067,20.326670 331.533508,23.646997 339.284210,25.762236 
	C346.397675,27.703568 353.959747,28.758823 361.331970,28.799839 
	C370.265747,28.849539 379.137268,29.187027 388.256927,27.438543 
	C399.549011,25.273563 411.352356,25.929892 422.978607,24.385561 
	C437.520081,22.453995 452.434021,23.197327 467.189423,23.086023 
	C471.470001,23.053734 475.758392,24.050043 480.043182,24.574825 
	C479.255280,25.766996 478.628326,25.958273 477.994537,25.984663 
	C457.619659,26.832996 437.076721,23.865791 416.878937,28.942896 
	C410.614990,30.517464 404.178375,31.401718 397.828644,32.642101 
	C396.896057,32.824276 395.948181,33.115879 395.107697,33.550732 
	C390.088654,36.147545 384.908661,38.499664 380.144897,41.507557 
	C373.249847,45.861141 365.999023,49.991802 360.098206,55.500954 
	C350.891052,64.097000 343.034363,74.126648 333.971375,82.893349 
	C322.968384,93.536613 313.945892,106.560356 299.947021,113.706642 
	C293.499634,116.997963 286.347626,119.371384 279.241333,120.765457 
	C273.394989,121.912369 267.144531,120.999443 260.051910,120.999443 
	C261.248138,122.624237 261.642914,123.752312 262.248352,123.879745 
	C264.794250,124.415710 267.398285,124.907135 269.989716,124.955994 
	C282.797028,125.197479 295.696777,125.869843 307.390930,119.021317 
	C314.552338,114.827316 322.402557,111.472130 328.711517,106.251472 
	C335.488342,100.643631 340.597595,93.069809 346.845062,86.760345 
	C354.341431,79.189590 360.754364,70.492989 370.174805,64.863434 
	C375.456329,61.707260 379.808746,56.829735 385.287933,54.207542 
	C395.009216,49.555195 405.067444,45.359932 415.369629,42.247700 
	C423.379120,39.828083 431.937256,38.569103 440.316681,38.173183 
	C455.377258,37.461586 470.517548,37.419178 485.252014,41.652729 
	C487.275330,42.234074 489.271881,42.908562 491.281311,43.538349 
	C494.963715,44.692455 498.607208,46.011944 502.353455,46.895672 
	C503.454834,47.155487 504.847839,46.179008 506.345306,45.691635 
	C503.007080,41.617107 500.028229,38.144920 497.261627,34.511150 
	C496.356171,33.321915 495.354919,31.630463 495.522156,30.311268 
	C495.963135,26.832626 497.020905,23.432184 497.908752,19.583702 
	C500.949554,14.168554 500.168854,8.735985 500.653290,2.345530 
	C498.444366,4.159768 497.222473,5.163343 495.645691,6.208064 
	C495.120667,6.696593 494.950470,7.143976 494.780273,7.591364 
	C494.523132,7.293020 494.156982,7.035615 494.026947,6.689510 
	C493.319183,4.805072 492.669617,2.898773 492.000000,0.999999 
	C510.659637,1.000000 529.319275,1.000000 547.984131,1.000000 
	C547.989441,146.271500 547.989441,291.542999 547.989441,436.907227 
	C365.666687,436.907227 183.333359,436.907227 1.000000,436.907227 
	C1.000000,398.239868 1.000000,359.587799 1.468657,320.467529 
	C38.192799,319.999390 74.448288,319.999390 110.709442,319.999390 
	C110.709442,306.720215 110.709442,293.990326 110.709442,281.999908 
	C94.662064,281.999908 78.912621,281.999908 63.627651,281.999908 
	C81.154930,241.773697 98.820381,201.230377 116.655106,160.298569 
	C80.049133,160.298569 44.648670,160.298569 9.316024,160.298569 
	C9.316024,173.329880 9.316024,186.060242 9.316024,199.173462 
	C24.040630,199.173462 38.452389,199.173462 53.285843,199.173462 
	C50.782131,205.423355 48.668350,211.285080 46.095341,216.937759 
	C44.032940,221.468704 41.187206,225.640930 39.088474,230.157913 
	C34.920235,239.129044 31.056200,248.241013 27.013178,257.270935 
	C22.035692,268.387939 16.954693,279.458740 12.011514,290.590851 
	C8.265466,299.027008 4.665158,307.527924 0.999997,316.000000 
M276.136810,155.017059 
	C270.894226,154.012421 265.682617,152.409332 260.402161,152.135742 
	C251.228668,151.660477 241.955551,151.363373 233.034912,154.465118 
	C230.896805,155.208542 228.784973,156.069107 226.596298,156.617081 
	C221.744675,157.831757 216.889633,159.586563 211.967987,159.849854 
	C202.396347,160.361923 192.777908,159.999817 182.778320,159.999817 
	C182.778320,163.372940 182.778320,166.124298 182.778320,169.231110 
	C177.213470,168.278992 172.073044,167.582855 167.022537,166.476364 
	C163.103760,165.617859 159.315811,164.174881 155.423141,163.172516 
	C154.752167,162.999725 153.769623,163.624374 153.104858,164.115860 
	C152.927902,164.246689 153.244598,165.664490 153.589722,165.789978 
	C159.460846,167.925110 165.292953,170.237564 171.303986,171.892105 
	C174.994690,172.907990 178.972870,172.879486 182.663025,173.301773 
	C182.663025,181.372040 182.663025,189.106445 182.663025,197.272354 
	C170.591080,197.272354 158.852783,197.272354 147.380203,197.272354 
	C147.380203,205.456207 147.380203,213.192856 147.380203,221.178436 
	C158.375443,221.178436 168.990891,221.178436 179.755951,221.178436 
	C179.755951,233.179565 179.755951,244.910950 179.755951,257.085449 
	C168.782089,257.085449 158.043686,257.085449 147.286652,257.085449 
	C147.286652,265.931702 147.286652,274.330872 147.286652,283.168671 
	C159.305298,283.168671 171.043762,283.168671 183.211899,283.168671 
	C183.211899,295.678955 183.211899,307.750244 183.211899,320.000122 
	C202.304504,320.000122 220.965942,319.576935 239.597336,320.142944 
	C252.908325,320.547272 264.675690,317.306000 275.855255,310.151520 
	C283.513733,305.250458 287.450714,297.810303 289.641479,290.031189 
	C291.645813,282.914185 291.160278,274.933350 290.812347,267.377380 
	C290.603119,262.833832 289.416595,257.875824 287.155579,253.983368 
	C282.670807,246.262634 276.388000,240.113083 266.157013,238.405228 
	C267.688751,237.372391 268.374084,236.570450 269.182892,236.416229 
	C280.256653,234.304840 285.214844,225.863235 287.457886,216.434052 
	C289.104584,209.511871 287.952362,201.882584 287.715118,194.579224 
	C287.645996,192.451279 286.711395,190.214279 285.692780,188.280487 
	C282.832855,182.851105 279.722351,177.553696 277.086945,172.872620 
	C284.410950,171.950348 292.234314,171.374176 299.879974,169.885254 
	C307.249512,168.450058 314.418671,166.006363 321.711731,164.146484 
	C324.061890,163.547180 326.674805,162.689178 328.911743,163.161301 
	C337.923004,165.063187 346.646149,167.192917 354.731903,172.581116 
	C363.489655,178.417099 368.605896,186.746063 370.526611,195.709473 
	C373.164581,208.020142 374.431183,221.102829 368.305389,233.372162 
	C364.490112,241.013672 359.584869,247.414780 351.571533,251.029755 
	C349.243195,252.080139 346.837524,253.574692 348.436371,256.705414 
	C353.879608,267.363953 359.681244,277.844086 364.939148,288.591400 
	C369.574738,298.066589 373.613129,307.832764 378.068848,317.398865 
	C378.578674,318.493408 380.047394,319.812317 381.123047,319.859833 
	C386.712189,320.106537 392.318054,319.974701 397.346741,319.974701 
	C398.718231,312.595215 399.958038,305.924347 401.197845,299.253540 
	C410.272552,299.253540 419.032776,299.253540 427.524353,299.253540 
	C428.763000,306.233887 429.949768,312.921906 431.167816,319.786285 
	C446.439178,319.786285 461.531219,319.786285 477.104309,319.786285 
	C476.859192,317.999420 476.725555,316.429535 476.417175,314.894684 
	C475.653351,311.092865 474.733124,307.321472 474.014252,303.511749 
	C472.610077,296.070160 471.506897,288.565582 469.887543,281.172821 
	C468.552429,275.077576 466.460236,269.150421 465.055573,263.067505 
	C463.564056,256.608582 462.602966,250.028824 461.199127,243.547562 
	C459.592346,236.129211 457.714813,228.769913 456.028656,221.368149 
	C454.951691,216.640564 453.617950,211.925659 453.087860,207.128998 
	C452.031677,197.571899 449.715149,188.359009 447.139954,179.123367 
	C445.423431,172.967178 444.987762,166.453857 443.889832,159.540024 
	C433.255188,159.540024 423.164398,159.540024 413.073578,159.540024 
	C416.705505,157.583649 420.379028,156.495865 423.851105,154.954453 
	C429.486450,152.452667 435.083618,149.824127 440.480103,146.855087 
	C441.761017,146.150375 442.989838,143.807114 442.850800,142.350388 
	C442.406097,137.690872 441.307800,133.093735 440.397308,128.120087 
	C439.596222,128.160751 438.301727,127.852150 437.450775,128.331268 
	C432.447052,131.148514 427.615204,134.274185 422.581665,137.033737 
	C420.201599,138.338577 417.327820,138.756042 414.978027,140.100479 
	C405.371552,145.596863 394.548523,146.928894 384.031647,147.742950 
	C365.826202,149.152161 347.329681,146.332123 329.323334,151.070572 
	C324.024292,152.465027 318.892212,154.555771 313.773346,156.556992 
	C307.756561,158.909241 301.891479,161.653030 295.856293,163.953217 
	C292.108948,165.381393 288.228851,166.626083 284.297760,167.363739 
	C279.834747,168.201248 274.337646,170.200027 270.899719,168.478867 
	C263.056183,164.552155 255.333450,161.162338 248.798019,160.833664 
	C256.697845,160.833664 266.848602,160.833664 277.917664,160.982513 
	C286.402222,161.550690 294.521759,160.418015 301.954834,155.519135 
	C300.081055,154.830078 298.209442,154.597946 296.416382,154.874680 
	C291.536102,155.627899 286.689026,156.596283 281.828827,157.479401 
	C281.735840,157.037140 281.642853,156.594894 281.549866,156.152634 
	C285.295319,154.274643 289.401031,152.880905 292.711304,150.418030 
	C299.637512,145.264923 307.839905,143.949707 315.773254,143.279388 
	C324.665283,142.528046 333.665192,143.179001 342.750244,144.600372 
	C353.932526,146.349869 365.387543,144.020462 376.269257,140.085800 
	C380.806183,138.445297 385.576477,137.458389 390.146851,135.899307 
	C392.840515,134.980438 395.377625,133.577103 397.937805,132.296982 
	C406.738190,127.896652 415.252136,122.763031 424.391571,119.253334 
	C431.358002,116.578102 439.107574,115.942352 446.642059,114.371490 
	C447.734314,109.242172 454.484314,106.009697 452.409332,98.153061 
	C444.806274,99.093231 436.989227,99.534470 429.426483,101.159225 
	C423.240417,102.488213 416.911377,104.441589 411.450592,107.537735 
	C404.251648,111.619408 398.090942,117.502159 391.000336,121.815750 
	C386.374878,124.629646 380.912811,126.090149 375.784027,128.048264 
	C371.256287,129.776886 366.784027,131.867310 362.089813,132.902298 
	C348.692017,135.856339 334.944244,132.887955 321.279022,135.562027 
	C312.021423,137.373566 302.478088,137.599930 294.151764,142.512741 
	C289.880463,145.032974 285.287323,147.869232 282.517181,151.757736 
	C280.780304,154.195877 279.509644,155.065826 276.136810,155.017059 
M131.000046,363.606964 
	C131.000046,361.835022 131.000046,360.063080 131.000046,358.001831 
	C124.986198,358.001831 119.509201,357.856598 114.047981,358.086304 
	C112.305763,358.159546 110.605392,359.227783 108.183701,360.091064 
	C102.992867,355.446442 91.651039,355.287231 87.407845,361.668121 
	C84.193375,366.501984 82.102180,372.577942 81.247505,378.357910 
	C80.227600,385.255341 80.607864,392.404266 83.050446,399.296509 
	C87.893486,412.962158 98.209969,415.251923 110.237404,409.447723 
	C109.676773,413.009888 109.553474,417.647949 107.228012,419.460083 
	C104.575233,421.527313 104.612450,417.186554 103.774765,415.376587 
	C103.723663,415.266144 103.486191,415.241974 102.920059,415.000427 
	C100.012207,415.000427 96.687752,415.000427 93.363304,415.000427 
	C89.937325,415.000427 86.511345,415.000427 83.247742,415.000427 
	C81.009262,425.537537 88.231361,433.650299 97.644035,435.124878 
	C103.310059,436.012543 109.239319,436.399506 114.897369,435.726318 
	C118.423454,435.306763 122.608795,433.271576 124.833015,430.583557 
	C129.214462,425.288422 131.360306,418.933899 131.141296,411.573090 
	C130.675583,395.921906 130.999832,380.247162 131.000046,363.606964 
M276.000305,363.700836 
	C274.913208,370.277710 273.826080,376.854614 272.651978,383.957916 
	C271.341827,374.925262 270.122101,366.515961 268.886871,357.999969 
	C263.856018,357.999969 259.358459,358.214355 254.891205,357.938141 
	C250.639984,357.675262 249.621445,360.595612 249.076035,363.575287 
	C247.982071,369.551910 247.313431,375.606354 246.469238,381.628693 
	C246.149246,381.570343 245.829239,381.511993 245.509247,381.453644 
	C244.282928,373.693054 243.056625,365.932434 241.843430,358.254883 
	C234.661636,358.254883 227.900406,358.254883 221.105362,358.254883 
	C222.455658,364.995605 223.617798,371.514862 225.093613,377.962311 
	C226.567505,384.401215 228.382904,390.761261 229.995972,397.169159 
	C231.060181,401.396698 231.901337,405.686493 233.146439,409.857635 
	C233.418365,410.768616 234.966721,411.872620 235.956345,411.901825 
	C242.238922,412.087372 248.529709,411.996155 254.719696,411.996155 
	C256.188934,404.056549 257.562744,396.632568 258.936584,389.208588 
	C259.145142,389.272308 259.353729,389.335999 259.562317,389.399719 
	C260.636230,396.956726 261.710175,404.513733 262.761139,411.909302 
	C270.360382,411.909302 276.840668,411.909302 283.515625,411.909302 
	C288.678894,394.060699 293.832764,376.244598 299.109833,358.002625 
	C293.758545,358.002625 288.931396,358.253876 284.143951,357.925690 
	C280.076416,357.646851 277.228516,358.687042 276.000305,363.700836 
M470.425507,411.999603 
	C472.527191,411.999603 474.628876,411.999603 476.714233,411.999603 
	C476.714233,384.712860 476.714233,357.992767 476.714233,331.302887 
	C469.693359,331.302887 462.961731,331.302887 456.042236,331.302887 
	C456.042236,341.226868 456.042236,350.850098 456.042236,360.621155 
	C455.359406,360.401489 454.819641,360.361481 454.450867,360.089600 
	C445.921936,353.802124 436.602875,357.217438 430.602356,366.003815 
	C426.388489,372.174011 430.533112,379.280701 426.064758,384.701233 
	C425.916962,384.880585 426.416534,385.547638 426.542908,386.007019 
	C427.044006,387.828369 427.546509,389.650208 427.994049,391.485168 
	C429.174469,396.324921 429.724762,401.424438 431.629395,405.956879 
	C434.561401,412.934387 449.365723,414.758179 453.333221,409.905914 
	C455.765808,410.738861 457.573517,411.746918 459.456879,411.916870 
	C462.761017,412.215088 466.111450,411.999786 470.425507,411.999603 
M181.373276,412.000031 
	C182.817184,411.936035 184.261108,411.872070 185.999847,411.795013 
	C185.999847,398.173431 185.999908,384.876251 185.999741,371.579041 
	C185.999725,370.745972 186.066483,369.906311 185.986404,369.080902 
	C185.293259,361.934784 179.937775,357.314667 172.807785,356.916504 
	C167.231140,356.605072 163.064377,358.624359 159.400497,364.051300 
	C159.121292,361.370087 158.961945,359.839905 158.795502,358.241577 
	C151.865036,358.241577 145.113632,358.241577 138.257660,358.241577 
	C138.257660,376.212677 138.257660,393.941284 138.257660,411.721619 
	C145.249878,411.721619 151.981445,411.721619 159.000092,411.721619 
	C159.000092,406.975647 158.674408,402.474915 159.084335,398.042206 
	C159.572845,392.759674 157.074081,387.115509 160.914062,382.193054 
	C161.879776,380.955109 162.537064,379.476562 163.336090,378.108551 
	C163.890686,379.855194 164.895294,381.594238 164.924835,383.349701 
	C165.083588,392.787842 164.999893,402.230011 164.999893,412.000031 
	C170.465927,412.000031 175.431274,412.000031 181.373276,412.000031 
M473.438416,46.999973 
	C458.991150,47.076313 444.441071,45.974232 430.429718,50.944603 
	C429.232941,51.369133 427.626282,50.780689 426.527130,51.315048 
	C419.398560,54.780701 412.155884,58.086613 405.352478,62.122326 
	C399.924988,65.341820 394.726868,69.142494 390.027802,73.355423 
	C379.812073,82.514305 370.184265,92.331009 359.929688,101.443962 
	C351.031525,109.351501 340.504059,114.262901 328.619781,116.089691 
	C327.915375,116.197983 327.391998,117.483955 326.784363,118.221893 
	C327.064301,118.603081 327.344208,118.984276 327.624146,119.365463 
	C329.845276,118.829597 332.051971,118.221962 334.290436,117.772491 
	C339.282166,116.770195 344.589935,116.590881 349.222473,114.721832 
	C356.683472,111.711594 364.001282,108.085854 370.825531,103.831360 
	C377.618652,99.596260 383.710785,94.241631 390.144440,89.423492 
	C395.736237,85.235825 401.317841,81.030357 407.011108,76.983482 
	C412.335022,73.199142 418.284607,70.542694 424.038940,67.537445 
	C433.209351,62.748100 442.870056,61.059563 452.514404,60.306656 
	C463.919342,59.416313 475.655487,58.575817 486.956421,62.038269 
	C492.509491,63.739651 497.940948,65.835022 503.445129,67.699936 
	C507.126526,68.947266 510.839020,70.102798 515.819702,71.714218 
	C514.349182,66.386086 513.817749,62.281837 512.067627,58.788097 
	C510.586182,55.830673 508.162781,52.449112 505.320801,51.271538 
	C500.629883,49.327862 495.300018,48.742188 490.175354,48.080727 
	C484.963074,47.407959 479.673309,47.335403 473.438416,46.999973 
M319.411407,357.924652 
	C313.450043,357.067383 303.553314,367.984467 303.106781,372.347321 
	C302.386810,379.381958 301.838043,386.505188 302.124359,393.554138 
	C302.503113,402.878723 312.027130,412.250793 321.653931,412.014709 
	C325.314880,411.924927 328.981903,412.077667 332.642578,411.982910 
	C338.744049,411.824982 343.886444,408.498993 346.715973,403.956879 
	C352.211060,395.135925 351.832123,384.909546 350.420624,374.870056 
	C349.405670,367.651154 344.437195,363.621124 338.755066,359.833252 
	C332.784729,355.853302 326.465759,357.112457 319.411407,357.924652 
M434.082214,87.561440 
	C436.242645,86.943405 438.638245,86.729507 440.520966,85.634155 
	C447.053223,81.833717 454.005798,79.961472 461.533875,79.972778 
	C463.318268,79.975456 465.124268,79.766846 466.882080,79.445992 
	C468.780975,79.099380 470.676483,77.986794 472.500092,78.131699 
	C476.187744,78.424736 479.821777,79.365250 483.485596,79.994125 
	C486.212372,80.462158 489.040314,80.562714 491.666290,81.350182 
	C497.340942,83.051865 502.951904,84.988235 508.516571,87.026161 
	C512.173401,88.365395 515.657471,90.172897 519.302979,91.547760 
	C523.704712,93.207832 528.195435,94.632149 533.313049,96.386635 
	C532.869202,94.616798 532.890137,93.696350 532.453613,93.126144 
	C530.020691,89.948219 527.643005,86.700142 524.919617,83.780960 
	C522.647522,81.345581 520.257996,78.577293 517.333435,77.286385 
	C511.457581,74.692764 505.105133,73.204720 499.088898,70.896782 
	C491.145111,67.849419 483.028534,65.771301 474.504791,66.058243 
	C468.363251,66.264984 462.229095,65.101074 456.078217,67.811005 
	C450.999725,70.048454 444.928467,69.995773 439.786987,72.135132 
	C431.018341,75.783722 422.667297,80.294136 415.469452,86.813507 
	C405.159332,96.151863 394.561493,105.178696 383.926788,114.149239 
	C380.367645,117.151451 376.319397,119.573799 371.680725,122.833130 
	C373.158722,122.955864 374.534698,123.491364 375.515533,123.081406 
	C380.844940,120.853806 386.358063,118.860779 391.277222,115.903999 
	C398.887695,111.329529 405.999725,105.934502 413.453827,101.088516 
	C420.190094,96.709183 427.101624,92.599373 434.082214,87.561440 
M37.890053,410.533112 
	C40.268364,408.064240 43.627499,406.003815 44.855045,403.055786 
	C50.143742,390.354645 46.877289,383.321381 34.973408,377.990692 
	C32.754082,376.996887 30.768234,375.481720 28.674635,374.207153 
	C28.883751,373.756256 29.092869,373.305359 29.301985,372.854492 
	C32.951260,374.085083 36.600533,375.315674 39.883877,376.422882 
	C41.514603,372.950500 43.095425,370.428711 43.881317,367.679626 
	C44.709534,364.782471 47.578026,360.840515 41.497414,359.789673 
	C36.576767,358.939301 31.703341,357.277740 26.772823,357.122284 
	C11.383781,356.637054 5.757777,368.390015 8.443440,381.636139 
	C8.929152,384.031708 11.652547,386.372070 13.904496,387.921875 
	C17.718903,390.546997 21.980959,392.521667 26.588202,395.064117 
	C19.926102,398.950958 16.951309,392.661926 13.237698,390.829407 
	C11.667167,393.428223 10.340119,395.481171 9.161565,397.616058 
	C8.060163,399.611145 6.876724,401.612396 6.154571,403.754303 
	C4.784152,407.819031 7.854812,408.629883 10.737149,409.457794 
	C15.993199,410.967499 21.174452,413.192688 26.528305,413.742493 
	C29.945097,414.093384 33.616108,411.968750 37.890053,410.533112 
M399.000000,397.495605 
	C399.000000,402.255005 399.000000,407.014435 399.000000,411.683960 
	C406.339966,411.683960 413.068787,411.683960 419.698364,411.683960 
	C419.698364,384.658142 419.698364,357.949371 419.698364,331.318146 
	C412.663971,331.318146 405.935364,331.318146 399.000000,331.318146 
	C399.000000,353.255829 399.000000,374.876251 399.000000,397.495605 
M382.424194,380.922455 
	C385.697815,375.983398 389.250671,380.584564 392.772430,380.944305 
	C392.772430,372.853699 392.772430,365.086639 392.772430,357.027313 
	C390.751434,357.027313 388.923981,356.816498 387.164856,357.073395 
	C383.995636,357.536194 381.931458,359.975281 377.464294,358.505615 
	C371.352112,356.494751 364.082092,358.003235 357.284302,358.003235 
	C357.284302,376.263702 357.284302,393.994751 357.284302,411.694397 
	C364.972626,411.694397 372.372711,411.694397 380.000031,411.694397 
	C380.000031,402.912262 379.918549,394.432861 380.070679,385.957672 
	C380.100098,384.319519 381.042816,382.697815 382.424194,380.922455 
M53.000000,363.607117 
	C53.000000,379.674011 53.000000,395.740906 53.000000,411.666229 
	C60.378189,411.666229 67.106911,411.666229 73.673981,411.666229 
	C73.673981,393.615845 73.673981,375.900818 73.673981,358.160614 
	C66.739304,358.160614 60.131554,358.160614 53.000072,358.160614 
	C53.000072,359.754578 53.000072,361.193573 53.000000,363.607117 
M308.999817,292.500000 
	C308.999817,301.586761 308.999817,310.673523 308.999817,319.753906 
	C318.023651,319.753906 326.447052,319.753906 336.008392,319.753906 
	C327.658234,297.183563 319.527466,275.189026 311.317139,253.224274 
	C311.221069,252.967133 310.096466,253.094437 308.999817,253.005692 
	C308.999817,265.931458 308.999817,278.715729 308.999817,292.500000 
M484.168579,93.053490 
	C484.985413,93.699936 485.717041,94.524063 486.633148,94.963593 
	C492.041656,97.558487 497.605927,99.850647 502.902557,102.651627 
	C510.097961,106.456726 516.803650,111.343140 524.270386,114.434990 
	C531.316833,117.352783 538.835022,119.971634 548.468445,118.488510 
	C545.569275,113.826279 543.220276,109.809258 540.610046,105.969803 
	C539.576538,104.449524 538.178650,102.671356 536.572754,102.139496 
	C531.536743,100.471558 526.308411,99.393379 521.182800,97.983925 
	C517.606140,97.000404 514.025391,95.989502 510.535706,94.741333 
	C503.578857,92.253052 496.862152,88.732292 489.712006,87.248344 
	C482.695282,85.792084 475.264709,86.111862 468.013977,86.081619 
	C463.538300,86.062943 459.902649,88.059044 457.475464,93.003830 
	C466.672668,93.003830 474.982239,93.003830 484.168579,93.053490 
M308.999725,214.500031 
	C308.999725,221.265823 308.999725,228.031601 308.999725,234.740097 
	C323.145203,235.656662 324.798706,235.325638 331.394958,220.520370 
	C334.654541,213.204239 331.484528,205.088486 326.292908,199.068832 
	C322.019684,194.114075 315.787537,192.902603 308.999725,194.468002 
	C308.999725,200.886475 308.999725,207.193390 308.999725,214.500031 
M500.396881,107.075638 
	C492.670197,103.236771 484.917725,99.372574 475.877289,101.046036 
	C473.134186,101.553810 470.489685,102.594200 467.800018,103.390633 
	C467.942780,103.876617 468.085571,104.362602 468.228363,104.848587 
	C469.123352,104.750824 470.022949,104.538826 470.912598,104.574516 
	C475.430023,104.755753 480.875092,103.463455 484.279724,105.523102 
	C493.182556,110.908989 501.086304,117.919342 509.591888,123.997223 
	C516.850159,129.183777 524.375122,133.999420 531.859009,138.860733 
	C532.201599,139.083282 533.629333,138.333862 533.994568,137.710663 
	C536.508240,133.420807 538.873474,129.043945 541.713318,123.925827 
	C537.465515,123.925827 533.881836,124.796570 530.965881,123.770317 
	C520.166931,119.969765 510.458313,113.941589 500.396881,107.075638 
M55.722210,351.959534 
	C59.354176,355.368713 63.603592,355.810852 68.137741,354.371277 
	C73.967728,352.520325 76.575897,345.929504 74.984116,337.366791 
	C74.311180,333.746826 67.901360,329.642914 63.497219,330.012238 
	C56.933769,330.562622 50.259216,337.322601 51.157738,343.270905 
	C51.593536,346.155975 53.697388,348.789062 55.722210,351.959534 
M347.972626,43.966873 
	C353.981598,42.310028 359.985931,40.636002 366.001343,39.002869 
	C369.518951,38.047874 373.363495,37.641319 376.008148,32.228409 
	C353.494354,37.165413 332.289368,35.148045 310.852234,32.491844 
	C311.313324,34.078815 311.853760,35.457001 312.812775,35.875145 
	C317.100586,37.744678 321.381775,39.923656 325.901062,40.899723 
	C332.854126,42.401440 340.000214,43.009670 347.972626,43.966873 
M228.568283,144.024872 
	C230.904938,146.363449 232.337845,143.504684 234.191025,143.204788 
	C242.800369,141.811600 251.482803,140.609650 260.183258,140.112259 
	C269.051514,139.605286 277.971313,140.000137 286.946198,140.000137 
	C286.946198,138.932739 287.133453,138.305832 286.900360,137.975952 
	C286.585388,137.530182 285.984344,137.138931 285.442352,137.023666 
	C278.983215,135.649994 272.565430,133.733063 266.030731,133.152634 
	C258.058502,132.444519 250.103806,133.789185 242.607010,136.803284 
	C237.678787,138.784698 232.913223,141.170746 228.568283,144.024872 
M293.931488,57.054546 
	C293.834747,57.977097 293.481232,59.641026 293.680115,59.709911 
	C296.263947,60.604733 298.987701,62.055164 301.557312,61.853210 
	C309.535339,61.226200 317.430878,63.036785 325.628235,60.424633 
	C331.637665,58.509689 336.923401,55.597607 342.434540,52.970028 
	C344.428406,52.019394 345.778931,49.719482 347.423035,48.035252 
	C347.111176,47.641254 346.799316,47.247257 346.487457,46.853260 
	C344.155121,47.322090 341.772491,47.620167 339.499451,48.290180 
	C331.005005,50.794060 322.665833,53.984482 314.034241,55.809860 
	C307.830505,57.121796 301.254272,56.672375 293.931488,57.054546 
M324.576324,75.073044 
	C325.614258,73.293900 326.652191,71.514755 327.690125,69.735611 
	C327.238861,69.388123 326.787628,69.040642 326.336365,68.693153 
	C312.840698,78.602669 297.527588,82.847519 279.720001,83.371201 
	C281.299988,84.786484 281.903412,85.802994 282.658691,85.932266 
	C294.359924,87.935020 306.032013,88.246399 316.945038,82.802597 
	C319.791260,81.382805 321.717438,78.118584 324.576324,75.073044 
M524.112488,145.966553 
	C529.378479,142.832855 529.358276,142.030136 524.459778,138.746933 
	C522.086731,137.156448 520.186218,134.781128 517.698486,133.468460 
	C515.899109,132.518997 513.485107,132.734467 510.896088,132.366623 
	C513.383606,139.491089 515.986755,145.049286 524.112488,145.966553 
z"/>
<path fill="#333333" opacity="1.000000" stroke="none" 
	d="
M0.999997,316.399994 
	C4.665158,307.527924 8.265466,299.027008 12.011514,290.590851 
	C16.954693,279.458740 22.035692,268.387939 27.013178,257.270935 
	C31.056200,248.241013 34.920235,239.129044 39.088474,230.157913 
	C41.187206,225.640930 44.032940,221.468704 46.095341,216.937759 
	C48.668350,211.285080 50.782131,205.423355 53.285843,199.173462 
	C38.452389,199.173462 24.040630,199.173462 9.316024,199.173462 
	C9.316024,186.060242 9.316024,173.329880 9.316024,160.298569 
	C44.648670,160.298569 80.049133,160.298569 116.655106,160.298569 
	C98.820381,201.230377 81.154930,241.773697 63.627651,281.999908 
	C78.912621,281.999908 94.662064,281.999908 110.709442,281.999908 
	C110.709442,293.990326 110.709442,306.720215 110.709442,319.999390 
	C74.448288,319.999390 38.192799,319.999390 1.468657,319.999695 
	C1.000000,318.933319 1.000000,317.866669 0.999997,316.399994 
z"/>
<path fill="#333333" opacity="1.000000" stroke="none" 
	d="
M497.833099,20.000601 
	C497.020905,23.432184 495.963135,26.832626 495.522156,30.311268 
	C495.354919,31.630463 496.356171,33.321915 497.261627,34.511150 
	C500.028229,38.144920 503.007080,41.617107 506.345306,45.691635 
	C504.847839,46.179008 503.454834,47.155487 502.353455,46.895672 
	C498.607208,46.011944 494.963715,44.692455 491.281311,43.538349 
	C489.271881,42.908562 487.275330,42.234074 485.252014,41.652729 
	C470.517548,37.419178 455.377258,37.461586 440.316681,38.173183 
	C431.937256,38.569103 423.379120,39.828083 415.369629,42.247700 
	C405.067444,45.359932 395.009216,49.555195 385.287933,54.207542 
	C379.808746,56.829735 375.456329,61.707260 370.174805,64.863434 
	C360.754364,70.492989 354.341431,79.189590 346.845062,86.760345 
	C340.597595,93.069809 335.488342,100.643631 328.711517,106.251472 
	C322.402557,111.472130 314.552338,114.827316 307.390930,119.021317 
	C295.696777,125.869843 282.797028,125.197479 269.989716,124.955994 
	C267.398285,124.907135 264.794250,124.415710 262.248352,123.879745 
	C261.642914,123.752312 261.248138,122.624237 260.051910,120.999443 
	C267.144531,120.999443 273.394989,121.912369 279.241333,120.765457 
	C286.347626,119.371384 293.499634,116.997963 299.947021,113.706642 
	C313.945892,106.560356 322.968384,93.536613 333.971375,82.893349 
	C343.034363,74.126648 350.891052,64.097000 360.098206,55.500954 
	C365.999023,49.991802 373.249847,45.861141 380.144897,41.507557 
	C384.908661,38.499664 390.088654,36.147545 395.107697,33.550732 
	C395.948181,33.115879 396.896057,32.824276 397.828644,32.642101 
	C404.178375,31.401718 410.614990,30.517464 416.878937,28.942896 
	C437.076721,23.865791 457.619659,26.832996 477.994537,25.984663 
	C478.628326,25.958273 479.255280,25.766996 480.043182,24.574825 
	C475.758392,24.050043 471.470001,23.053734 467.189423,23.086023 
	C452.434021,23.197327 437.520081,22.453995 422.978607,24.385561 
	C411.352356,25.929892 399.549011,25.273563 388.256927,27.438543 
	C379.137268,29.187027 370.265747,28.849539 361.331970,28.799839 
	C353.959747,28.758823 346.397675,27.703568 339.284210,25.762236 
	C331.533508,23.646997 324.044067,20.326670 316.758179,16.863777 
	C313.272583,15.207110 310.519989,12.008099 307.435425,9.507640 
	C307.690491,9.011858 307.945526,8.516075 308.200592,8.020293 
	C310.103638,8.362249 312.151184,8.365402 313.884735,9.104783 
	C321.407013,12.313150 329.174622,14.357776 337.336731,15.025756 
	C344.007751,15.571704 350.685974,17.055086 357.316254,16.826315 
	C366.709534,16.502209 376.081512,15.138022 385.423340,13.917936 
	C390.382904,13.270201 395.386902,12.398851 400.151367,10.920885 
	C418.605682,5.196198 437.539551,4.362261 456.612854,5.058578 
	C464.928497,5.362161 473.103149,6.722718 480.610443,10.771923 
	C483.369598,12.260138 487.241821,9.647637 488.000671,6.022591 
	C488.295990,4.611782 488.653778,3.214040 488.991577,1.405173 
	C489.750000,1.000000 490.500000,1.000000 491.625000,0.999999 
	C492.669617,2.898773 493.319183,4.805072 494.026947,6.689510 
	C494.156982,7.035615 494.523132,7.293020 494.780273,7.591364 
	C494.950470,7.143976 495.120667,6.696593 495.645447,6.633914 
	C495.792389,10.989112 495.522034,14.959040 495.486145,18.931082 
	C495.483002,19.280489 497.014435,19.643764 497.833099,20.000601 
z"/>
<path fill="#333333" opacity="1.000000" stroke="none" 
	d="
M276.999359,160.833664 
	C266.848602,160.833664 256.697845,160.833664 248.798019,160.833664 
	C255.333450,161.162338 263.056183,164.552155 270.899719,168.478867 
	C274.337646,170.200027 279.834747,168.201248 284.297760,167.363739 
	C288.228851,166.626083 292.108948,165.381393 295.856293,163.953217 
	C301.891479,161.653030 307.756561,158.909241 313.773346,156.556992 
	C318.892212,154.555771 324.024292,152.465027 329.323334,151.070572 
	C347.329681,146.332123 365.826202,149.152161 384.031647,147.742950 
	C394.548523,146.928894 405.371552,145.596863 414.978027,140.100479 
	C417.327820,138.756042 420.201599,138.338577 422.581665,137.033737 
	C427.615204,134.274185 432.447052,131.148514 437.450775,128.331268 
	C438.301727,127.852150 439.596222,128.160751 440.397308,128.120087 
	C441.307800,133.093735 442.406097,137.690872 442.850800,142.350388 
	C442.989838,143.807114 441.761017,146.150375 440.480103,146.855087 
	C435.083618,149.824127 429.486450,152.452667 423.851105,154.954453 
	C420.379028,156.495865 416.705505,157.583649 413.073578,159.540024 
	C423.164398,159.540024 433.255188,159.540024 443.889832,159.540024 
	C444.987762,166.453857 445.423431,172.967178 447.139954,179.123367 
	C449.715149,188.359009 452.031677,197.571899 453.087860,207.128998 
	C453.617950,211.925659 454.951691,216.640564 456.028656,221.368149 
	C457.714813,228.769913 459.592346,236.129211 461.199127,243.547562 
	C462.602966,250.028824 463.564056,256.608582 465.055573,263.067505 
	C466.460236,269.150421 468.552429,275.077576 469.887543,281.172821 
	C471.506897,288.565582 472.610077,296.070160 474.014252,303.511749 
	C474.733124,307.321472 475.653351,311.092865 476.417175,314.894684 
	C476.725555,316.429535 476.859192,317.999420 477.104309,319.786285 
	C461.531219,319.786285 446.439178,319.786285 431.167816,319.786285 
	C429.949768,312.921906 428.763000,306.233887 427.524353,299.253540 
	C419.032776,299.253540 410.272552,299.253540 401.197845,299.253540 
	C399.958038,305.924347 398.718231,312.595215 397.346741,319.974701 
	C392.318054,319.974701 386.712189,320.106537 381.123047,319.859833 
	C380.047394,319.812317 378.578674,318.493408 378.068848,317.398865 
	C373.613129,307.832764 369.574738,298.066589 364.939148,288.591400 
	C359.681244,277.844086 353.879608,267.363953 348.436371,256.705414 
	C346.837524,253.574692 349.243195,252.080139 351.571533,251.029755 
	C359.584869,247.414780 364.490112,241.013672 368.305389,233.372162 
	C374.431183,221.102829 373.164581,208.020142 370.526611,195.709473 
	C368.605896,186.746063 363.489655,178.417099 354.731903,172.581116 
	C346.646149,167.192917 337.923004,165.063187 328.911743,163.161301 
	C326.674805,162.689178 324.061890,163.547180 321.711731,164.146484 
	C314.418671,166.006363 307.249512,168.450058 299.879974,169.885254 
	C292.234314,171.374176 284.410950,171.950348 277.086945,172.872620 
	C279.722351,177.553696 282.832855,182.851105 285.692780,188.280487 
	C286.711395,190.214279 287.645996,192.451279 287.715118,194.579224 
	C287.952362,201.882584 289.104584,209.511871 287.457886,216.434052 
	C285.214844,225.863235 280.256653,234.304840 269.182892,236.416229 
	C268.374084,236.570450 267.688751,237.372391 266.157013,238.405228 
	C276.388000,240.113083 282.670807,246.262634 287.155579,253.983368 
	C289.416595,257.875824 290.603119,262.833832 290.812347,267.377380 
	C291.160278,274.933350 291.645813,282.914185 289.641479,290.031189 
	C287.450714,297.810303 283.513733,305.250458 275.855255,310.151520 
	C264.675690,317.306000 252.908325,320.547272 239.597336,320.142944 
	C220.965942,319.576935 202.304504,320.000122 183.211899,320.000122 
	C183.211899,307.750244 183.211899,295.678955 183.211899,283.168671 
	C171.043762,283.168671 159.305298,283.168671 147.286652,283.168671 
	C147.286652,274.330872 147.286652,265.931702 147.286652,257.085449 
	C158.043686,257.085449 168.782089,257.085449 179.755951,257.085449 
	C179.755951,244.910950 179.755951,233.179565 179.755951,221.178436 
	C168.990891,221.178436 158.375443,221.178436 147.380203,221.178436 
	C147.380203,213.192856 147.380203,205.456207 147.380203,197.272354 
	C158.852783,197.272354 170.591080,197.272354 182.663025,197.272354 
	C182.663025,189.106445 182.663025,181.372040 182.663025,173.301773 
	C178.972870,172.879486 174.994690,172.907990 171.303986,171.892105 
	C165.292953,170.237564 159.460846,167.925110 153.589722,165.789978 
	C153.244598,165.664490 152.927902,164.246689 153.104858,164.115860 
	C153.769623,163.624374 154.752167,162.999725 155.423141,163.172516 
	C159.315811,164.174881 163.103760,165.617859 167.022537,166.476364 
	C172.073044,167.582855 177.213470,168.278992 182.778320,169.231110 
	C182.778320,166.124298 182.778320,163.372940 182.778320,159.999817 
	C192.777908,159.999817 202.396347,160.361923 211.967987,159.849854 
	C216.889633,159.586563 221.744675,157.831757 226.596298,156.617081 
	C228.784973,156.069107 230.896805,155.208542 233.034912,154.465118 
	C241.955551,151.363373 251.228668,151.660477 260.402161,152.135742 
	C265.682617,152.409332 270.894226,154.012421 276.568390,155.496460 
	C276.999756,157.595139 276.999542,159.214401 276.999359,160.833664 
M238.134216,283.845825 
	C241.954193,288.916534 247.227142,285.001984 252.264526,285.601227 
	C249.806885,282.718506 247.349243,279.835785 244.989868,276.133575 
	C249.036346,265.709625 238.225998,254.194473 227.213638,256.432098 
	C227.213638,265.478455 227.213638,274.559082 227.213638,284.134583 
	C230.981216,283.796722 234.491196,283.481934 238.134216,283.845825 
M422.008392,264.955505 
	C421.496887,260.045258 422.503876,255.270004 420.502502,250.128891 
	C418.515167,245.023849 419.480194,238.798523 418.974854,233.080032 
	C418.372925,226.268143 417.627838,219.467575 416.820282,212.676910 
	C416.720245,211.835678 415.857147,211.085220 414.945068,209.666550 
	C412.183319,228.591919 409.548737,246.645737 406.870941,264.995605 
	C412.142334,264.995605 416.613556,264.995605 422.008392,264.955505 
M241.931122,216.326889 
	C241.450317,212.936234 245.247681,210.703598 243.305832,206.299377 
	C240.418091,199.749741 235.507019,195.650238 227.316803,196.327530 
	C227.316803,204.515991 227.316803,212.707108 227.316803,222.437744 
	C232.556625,220.388824 236.979813,218.659225 241.931122,216.326889 
z"/>
<path fill="#333333" opacity="1.000000" stroke="none" 
	d="
M131.000153,364.094543 
	C130.999832,380.247162 130.675583,395.921906 131.141296,411.573090 
	C131.360306,418.933899 129.214462,425.288422 124.833015,430.583557 
	C122.608795,433.271576 118.423454,435.306763 114.897369,435.726318 
	C109.239319,436.399506 103.310059,436.012543 97.644035,435.124878 
	C88.231361,433.650299 81.009262,425.537537 83.247742,415.000427 
	C86.511345,415.000427 89.937325,415.000427 93.363304,415.000427 
	C96.687752,415.000427 100.012207,415.000427 102.920059,415.000427 
	C103.486191,415.241974 103.723663,415.266144 103.774765,415.376587 
	C104.612450,417.186554 104.575233,421.527313 107.228012,419.460083 
	C109.553474,417.647949 109.676773,413.009888 110.237404,409.447723 
	C98.209969,415.251923 87.893486,412.962158 83.050446,399.296509 
	C80.607864,392.404266 80.227600,385.255341 81.247505,378.357910 
	C82.102180,372.577942 84.193375,366.501984 87.407845,361.668121 
	C91.651039,355.287231 102.992867,355.446442 108.183701,360.091064 
	C110.605392,359.227783 112.305763,358.159546 114.047981,358.086304 
	C119.509201,357.856598 124.986198,358.001831 131.000046,358.001831 
	C131.000046,360.063080 131.000046,361.835022 131.000153,364.094543 
M110.000496,380.858765 
	C109.793999,379.952026 109.845306,378.841339 109.324615,378.183136 
	C108.385010,376.995422 107.103294,376.078339 105.964447,375.048248 
	C105.308678,376.717346 104.230598,378.350708 104.085732,380.063049 
	C103.791359,383.542267 103.783737,387.085297 104.121758,390.556885 
	C104.239555,391.766754 105.724243,392.843475 106.584671,393.981018 
	C107.722847,392.733643 109.574150,391.623688 109.846741,390.209473 
	C110.370728,387.491058 110.000267,384.600250 110.000496,380.858765 
z"/>
<path fill="#333333" opacity="1.000000" stroke="none" 
	d="
M276.002563,363.253906 
	C277.228516,358.687042 280.076416,357.646851 284.143951,357.925690 
	C288.931396,358.253876 293.758545,358.002625 299.109833,358.002625 
	C293.832764,376.244598 288.678894,394.060699 283.515625,411.909302 
	C276.840668,411.909302 270.360382,411.909302 262.761139,411.909302 
	C261.710175,404.513733 260.636230,396.956726 259.562317,389.399719 
	C259.353729,389.335999 259.145142,389.272308 258.936584,389.208588 
	C257.562744,396.632568 256.188934,404.056549 254.719696,411.996155 
	C248.529709,411.996155 242.238922,412.087372 235.956345,411.901825 
	C234.966721,411.872620 233.418365,410.768616 233.146439,409.857635 
	C231.901337,405.686493 231.060181,401.396698 229.995972,397.169159 
	C228.382904,390.761261 226.567505,384.401215 225.093613,377.962311 
	C223.617798,371.514862 222.455658,364.995605 221.105362,358.254883 
	C227.900406,358.254883 234.661636,358.254883 241.843430,358.254883 
	C243.056625,365.932434 244.282928,373.693054 245.509247,381.453644 
	C245.829239,381.511993 246.149246,381.570343 246.469238,381.628693 
	C247.313431,375.606354 247.982071,369.551910 249.076035,363.575287 
	C249.621445,360.595612 250.639984,357.675262 254.891205,357.938141 
	C259.358459,358.214355 263.856018,357.999969 268.886871,357.999969 
	C270.122101,366.515961 271.341827,374.925262 272.651978,383.957916 
	C273.826080,376.854614 274.913208,370.277710 276.002563,363.253906 
z"/>
<path fill="#333333" opacity="1.000000" stroke="none" 
	d="
M469.934021,411.999603 
	C466.111450,411.999786 462.761017,412.215088 459.456879,411.916870 
	C457.573517,411.746918 455.765808,410.738861 453.333221,409.905914 
	C449.365723,414.758179 434.561401,412.934387 431.629395,405.956879 
	C429.724762,401.424438 429.174469,396.324921 427.994049,391.485168 
	C427.546509,389.650208 427.044006,387.828369 426.542908,386.007019 
	C426.416534,385.547638 425.916962,384.880585 426.064758,384.701233 
	C430.533112,379.280701 426.388489,372.174011 430.602356,366.003815 
	C436.602875,357.217438 445.921936,353.802124 454.450867,360.089600 
	C454.819641,360.361481 455.359406,360.401489 456.042236,360.621155 
	C456.042236,350.850098 456.042236,341.226868 456.042236,331.302887 
	C462.961731,331.302887 469.693359,331.302887 476.714233,331.302887 
	C476.714233,357.992767 476.714233,384.712860 476.714233,411.999603 
	C474.628876,411.999603 472.527191,411.999603 469.934021,411.999603 
M449.850922,378.634369 
	C449.623077,383.673401 449.395233,388.712433 449.161713,393.876892 
	C451.882782,393.876892 453.170197,393.876892 455.052032,393.876892 
	C455.052032,388.528534 455.160492,383.287659 454.950134,378.059601 
	C454.913116,377.139282 453.541962,376.272583 452.786926,375.381134 
	C451.853333,376.188995 450.919708,376.996857 449.850922,378.634369 
z"/>
<path fill="#333333" opacity="1.000000" stroke="none" 
	d="
M180.884949,412.000031 
	C175.431274,412.000031 170.465927,412.000031 164.999893,412.000031 
	C164.999893,402.230011 165.083588,392.787842 164.924835,383.349701 
	C164.895294,381.594238 163.890686,379.855194 163.336090,378.108551 
	C162.537064,379.476562 161.879776,380.955109 160.914062,382.193054 
	C157.074081,387.115509 159.572845,392.759674 159.084335,398.042206 
	C158.674408,402.474915 159.000092,406.975647 159.000092,411.721619 
	C151.981445,411.721619 145.249878,411.721619 138.257660,411.721619 
	C138.257660,393.941284 138.257660,376.212677 138.257660,358.241577 
	C145.113632,358.241577 151.865036,358.241577 158.795502,358.241577 
	C158.961945,359.839905 159.121292,361.370087 159.400497,364.051300 
	C163.064377,358.624359 167.231140,356.605072 172.807785,356.916504 
	C179.937775,357.314667 185.293259,361.934784 185.986404,369.080902 
	C186.066483,369.906311 185.999725,370.745972 185.999741,371.579041 
	C185.999908,384.876251 185.999847,398.173431 185.999847,411.795013 
	C184.261108,411.872070 182.817184,411.936035 180.884949,412.000031 
z"/>
<path fill="#333333" opacity="1.000000" stroke="none" 
	d="
M473.927948,46.999992 
	C479.673309,47.335403 484.963074,47.407959 490.175354,48.080727 
	C495.300018,48.742188 500.629883,49.327862 505.320801,51.271538 
	C508.162781,52.449112 510.586182,55.830673 512.067627,58.788097 
	C513.817749,62.281837 514.349182,66.386086 515.819702,71.714218 
	C510.839020,70.102798 507.126526,68.947266 503.445129,67.699936 
	C497.940948,65.835022 492.509491,63.739651 486.956421,62.038269 
	C475.655487,58.575817 463.919342,59.416313 452.514404,60.306656 
	C442.870056,61.059563 433.209351,62.748100 424.038940,67.537445 
	C418.284607,70.542694 412.335022,73.199142 407.011108,76.983482 
	C401.317841,81.030357 395.736237,85.235825 390.144440,89.423492 
	C383.710785,94.241631 377.618652,99.596260 370.825531,103.831360 
	C364.001282,108.085854 356.683472,111.711594 349.222473,114.721832 
	C344.589935,116.590881 339.282166,116.770195 334.290436,117.772491 
	C332.051971,118.221962 329.845276,118.829597 327.624146,119.365463 
	C327.344208,118.984276 327.064301,118.603081 326.784363,118.221893 
	C327.391998,117.483955 327.915375,116.197983 328.619781,116.089691 
	C340.504059,114.262901 351.031525,109.351501 359.929688,101.443962 
	C370.184265,92.331009 379.812073,82.514305 390.027802,73.355423 
	C394.726868,69.142494 399.924988,65.341820 405.352478,62.122326 
	C412.155884,58.086613 419.398560,54.780701 426.527130,51.315048 
	C427.626282,50.780689 429.232941,51.369133 430.429718,50.944603 
	C444.441071,45.974232 458.991150,47.076313 473.927948,46.999992 
z"/>
<path fill="#333333" opacity="1.000000" stroke="none" 
	d="
M319.766785,357.647644 
	C326.465759,357.112457 332.784729,355.853302 338.755066,359.833252 
	C344.437195,363.621124 349.405670,367.651154 350.420624,374.870056 
	C351.832123,384.909546 352.211060,395.135925 346.715973,403.956879 
	C343.886444,408.498993 338.744049,411.824982 332.642578,411.982910 
	C328.981903,412.077667 325.314880,411.924927 321.653931,412.014709 
	C312.027130,412.250793 302.503113,402.878723 302.124359,393.554138 
	C301.838043,386.505188 302.386810,379.381958 303.106781,372.347321 
	C303.553314,367.984467 313.450043,357.067383 319.766785,357.647644 
M330.000214,388.265533 
	C330.000427,385.787994 330.311005,383.259888 329.917633,380.846497 
	C329.483063,378.180389 328.403320,375.619476 327.604584,373.012726 
	C326.748169,373.093231 325.891785,373.173737 325.035370,373.254272 
	C324.356934,376.246368 323.487274,379.211700 323.062805,382.239380 
	C322.744843,384.507172 323.051819,386.856750 322.987518,389.167328 
	C322.899902,392.316101 322.798248,396.523621 326.494293,396.502472 
	C329.873505,396.483185 330.035675,392.283875 330.000214,388.265533 
z"/>
<path fill="#333333" opacity="1.000000" stroke="none" 
	d="
M277.458496,160.908081 
	C276.999542,159.214401 276.999756,157.595139 276.999664,155.571243 
	C279.509644,155.065826 280.780304,154.195877 282.517181,151.757736 
	C285.287323,147.869232 289.880463,145.032974 294.151764,142.512741 
	C302.478088,137.599930 312.021423,137.373566 321.279022,135.562027 
	C334.944244,132.887955 348.692017,135.856339 362.089813,132.902298 
	C366.784027,131.867310 371.256287,129.776886 375.784027,128.048264 
	C380.912811,126.090149 386.374878,124.629646 391.000336,121.815750 
	C398.090942,117.502159 404.251648,111.619408 411.450592,107.537735 
	C416.911377,104.441589 423.240417,102.488213 429.426483,101.159225 
	C436.989227,99.534470 444.806274,99.093231 452.409332,98.153061 
	C454.484314,106.009697 447.734314,109.242172 446.642059,114.371490 
	C439.107574,115.942352 431.358002,116.578102 424.391571,119.253334 
	C415.252136,122.763031 406.738190,127.896652 397.937805,132.296982 
	C395.377625,133.577103 392.840515,134.980438 390.146851,135.899307 
	C385.576477,137.458389 380.806183,138.445297 376.269257,140.085800 
	C365.387543,144.020462 353.932526,146.349869 342.750244,144.600372 
	C333.665192,143.179001 324.665283,142.528046 315.773254,143.279388 
	C307.839905,143.949707 299.637512,145.264923 292.711304,150.418030 
	C289.401031,152.880905 285.295319,154.274643 281.549866,156.152634 
	C281.642853,156.594894 281.735840,157.037140 281.828827,157.479401 
	C286.689026,156.596283 291.536102,155.627899 296.416382,154.874680 
	C298.209442,154.597946 300.081055,154.830078 301.954834,155.519135 
	C294.521759,160.418015 286.402222,161.550690 277.458496,160.908081 
z"/>
<path fill="#333333" opacity="1.000000" stroke="none" 
	d="
M434.009033,87.966080 
	C427.101624,92.599373 420.190094,96.709183 413.453827,101.088516 
	C405.999725,105.934502 398.887695,111.329529 391.277222,115.903999 
	C386.358063,118.860779 380.844940,120.853806 375.515533,123.081406 
	C374.534698,123.491364 373.158722,122.955864 371.680725,122.833130 
	C376.319397,119.573799 380.367645,117.151451 383.926788,114.149239 
	C394.561493,105.178696 405.159332,96.151863 415.469452,86.813507 
	C422.667297,80.294136 431.018341,75.783722 439.786987,72.135132 
	C444.928467,69.995773 450.999725,70.048454 456.078217,67.811005 
	C462.229095,65.101074 468.363251,66.264984 474.504791,66.058243 
	C483.028534,65.771301 491.145111,67.849419 499.088898,70.896782 
	C505.105133,73.204720 511.457581,74.692764 517.333435,77.286385 
	C520.257996,78.577293 522.647522,81.345581 524.919617,83.780960 
	C527.643005,86.700142 530.020691,89.948219 532.453613,93.126144 
	C532.890137,93.696350 532.869202,94.616798 533.313049,96.386635 
	C528.195435,94.632149 523.704712,93.207832 519.302979,91.547760 
	C515.657471,90.172897 512.173401,88.365395 508.516571,87.026161 
	C502.951904,84.988235 497.340942,83.051865 491.666290,81.350182 
	C489.040314,80.562714 486.212372,80.462158 483.485596,79.994125 
	C479.821777,79.365250 476.187744,78.424736 472.500092,78.131699 
	C470.676483,77.986794 468.780975,79.099380 466.882080,79.445992 
	C465.124268,79.766846 463.318268,79.975456 461.533875,79.972778 
	C454.005798,79.961472 447.053223,81.833717 440.520966,85.634155 
	C438.638245,86.729507 436.242645,86.943405 434.009033,87.966080 
z"/>
<path fill="#333333" opacity="1.000000" stroke="none" 
	d="
M37.531593,410.743591 
	C33.616108,411.968750 29.945097,414.093384 26.528305,413.742493 
	C21.174452,413.192688 15.993199,410.967499 10.737149,409.457794 
	C7.854812,408.629883 4.784152,407.819031 6.154571,403.754303 
	C6.876724,401.612396 8.060163,399.611145 9.161565,397.616058 
	C10.340119,395.481171 11.667167,393.428223 13.237698,390.829407 
	C16.951309,392.661926 19.926102,398.950958 26.588202,395.064117 
	C21.980959,392.521667 17.718903,390.546997 13.904496,387.921875 
	C11.652547,386.372070 8.929152,384.031708 8.443440,381.636139 
	C5.757777,368.390015 11.383781,356.637054 26.772823,357.122284 
	C31.703341,357.277740 36.576767,358.939301 41.497414,359.789673 
	C47.578026,360.840515 44.709534,364.782471 43.881317,367.679626 
	C43.095425,370.428711 41.514603,372.950500 39.883877,376.422882 
	C36.600533,375.315674 32.951260,374.085083 29.301985,372.854492 
	C29.092869,373.305359 28.883751,373.756256 28.674635,374.207153 
	C30.768234,375.481720 32.754082,376.996887 34.973408,377.990692 
	C46.877289,383.321381 50.143742,390.354645 44.855045,403.055786 
	C43.627499,406.003815 40.268364,408.064240 37.531593,410.743591 
z"/>
<path fill="#333333" opacity="1.000000" stroke="none" 
	d="
M399.000000,396.996124 
	C399.000000,374.876251 399.000000,353.255829 399.000000,331.318146 
	C405.935364,331.318146 412.663971,331.318146 419.698364,331.318146 
	C419.698364,357.949371 419.698364,384.658142 419.698364,411.683960 
	C413.068787,411.683960 406.339966,411.683960 399.000000,411.683960 
	C399.000000,407.014435 399.000000,402.255005 399.000000,396.996124 
z"/>
<path fill="#333333" opacity="1.000000" stroke="none" 
	d="
M381.994202,380.995483 
	C381.042816,382.697815 380.100098,384.319519 380.070679,385.957672 
	C379.918549,394.432861 380.000031,402.912262 380.000031,411.694397 
	C372.372711,411.694397 364.972626,411.694397 357.284302,411.694397 
	C357.284302,393.994751 357.284302,376.263702 357.284302,358.003235 
	C364.082092,358.003235 371.352112,356.494751 377.464294,358.505615 
	C381.931458,359.975281 383.995636,357.536194 387.164856,357.073395 
	C388.923981,356.816498 390.751434,357.027313 392.772430,357.027313 
	C392.772430,365.086639 392.772430,372.853699 392.772430,380.944305 
	C389.250671,380.584564 385.697815,375.983398 381.994202,380.995483 
z"/>
<path fill="#333333" opacity="1.000000" stroke="none" 
	d="
M53.000038,363.119843 
	C53.000072,361.193573 53.000072,359.754578 53.000072,358.160614 
	C60.131554,358.160614 66.739304,358.160614 73.673981,358.160614 
	C73.673981,375.900818 73.673981,393.615845 73.673981,411.666229 
	C67.106911,411.666229 60.378189,411.666229 53.000000,411.666229 
	C53.000000,395.740906 53.000000,379.674011 53.000038,363.119843 
z"/>
<path fill="#333333" opacity="1.000000" stroke="none" 
	d="
M308.999817,292.000000 
	C308.999817,278.715729 308.999817,265.931458 308.999817,253.005692 
	C310.096466,253.094437 311.221069,252.967133 311.317139,253.224274 
	C319.527466,275.189026 327.658234,297.183563 336.008392,319.753906 
	C326.447052,319.753906 318.023651,319.753906 308.999817,319.753906 
	C308.999817,310.673523 308.999817,301.586761 308.999817,292.000000 
z"/>
<path fill="#333333" opacity="1.000000" stroke="none" 
	d="
M483.730164,93.028656 
	C474.982239,93.003830 466.672668,93.003830 457.475464,93.003830 
	C459.902649,88.059044 463.538300,86.062943 468.013977,86.081619 
	C475.264709,86.111862 482.695282,85.792084 489.712006,87.248344 
	C496.862152,88.732292 503.578857,92.253052 510.535706,94.741333 
	C514.025391,95.989502 517.606140,97.000404 521.182800,97.983925 
	C526.308411,99.393379 531.536743,100.471558 536.572754,102.139496 
	C538.178650,102.671356 539.576538,104.449524 540.610046,105.969803 
	C543.220276,109.809258 545.569275,113.826279 548.468445,118.488510 
	C538.835022,119.971634 531.316833,117.352783 524.270386,114.434990 
	C516.803650,111.343140 510.097961,106.456726 502.902557,102.651627 
	C497.605927,99.850647 492.041656,97.558487 486.633148,94.963593 
	C485.717041,94.524063 484.985413,93.699936 483.730164,93.028656 
z"/>
<path fill="#333333" opacity="1.000000" stroke="none" 
	d="
M308.999725,214.000168 
	C308.999725,207.193390 308.999725,200.886475 308.999725,194.468002 
	C315.787537,192.902603 322.019684,194.114075 326.292908,199.068832 
	C331.484528,205.088486 334.654541,213.204239 331.394958,220.520370 
	C324.798706,235.325638 323.145203,235.656662 308.999725,234.740097 
	C308.999725,228.031601 308.999725,221.265823 308.999725,214.000168 
z"/>
<path fill="#333333" opacity="1.000000" stroke="none" 
	d="
M500.668396,107.360840 
	C510.458313,113.941589 520.166931,119.969765 530.965881,123.770317 
	C533.881836,124.796570 537.465515,123.925827 541.713318,123.925827 
	C538.873474,129.043945 536.508240,133.420807 533.994568,137.710663 
	C533.629333,138.333862 532.201599,139.083282 531.859009,138.860733 
	C524.375122,133.999420 516.850159,129.183777 509.591888,123.997223 
	C501.086304,117.919342 493.182556,110.908989 484.279724,105.523102 
	C480.875092,103.463455 475.430023,104.755753 470.912598,104.574516 
	C470.022949,104.538826 469.123352,104.750824 468.228363,104.848587 
	C468.085571,104.362602 467.942780,103.876617 467.800018,103.390633 
	C470.489685,102.594200 473.134186,101.553810 475.877289,101.046036 
	C484.917725,99.372574 492.670197,103.236771 500.668396,107.360840 
z"/>
<path fill="#333333" opacity="1.000000" stroke="none" 
	d="
M55.384140,351.747864 
	C53.697388,348.789062 51.593536,346.155975 51.157738,343.270905 
	C50.259216,337.322601 56.933769,330.562622 63.497219,330.012238 
	C67.901360,329.642914 74.311180,333.746826 74.984116,337.366791 
	C76.575897,345.929504 73.967728,352.520325 68.137741,354.371277 
	C63.603592,355.810852 59.354176,355.368713 55.384140,351.747864 
z"/>
<path fill="#333333" opacity="1.000000" stroke="none" 
	d="
M347.518494,43.981926 
	C340.000214,43.009670 332.854126,42.401440 325.901062,40.899723 
	C321.381775,39.923656 317.100586,37.744678 312.812775,35.875145 
	C311.853760,35.457001 311.313324,34.078815 310.852234,32.491844 
	C332.289368,35.148045 353.494354,37.165413 376.008148,32.228409 
	C373.363495,37.641319 369.518951,38.047874 366.001343,39.002869 
	C359.985931,40.636002 353.981598,42.310028 347.518494,43.981926 
z"/>
<path fill="#333333" opacity="1.000000" stroke="none" 
	d="
M228.321564,143.700226 
	C232.913223,141.170746 237.678787,138.784698 242.607010,136.803284 
	C250.103806,133.789185 258.058502,132.444519 266.030731,133.152634 
	C272.565430,133.733063 278.983215,135.649994 285.442352,137.023666 
	C285.984344,137.138931 286.585388,137.530182 286.900360,137.975952 
	C287.133453,138.305832 286.946198,138.932739 286.946198,140.000137 
	C277.971313,140.000137 269.051514,139.605286 260.183258,140.112259 
	C251.482803,140.609650 242.800369,141.811600 234.191025,143.204788 
	C232.337845,143.504684 230.904938,146.363449 228.321564,143.700226 
z"/>
<path fill="#333333" opacity="1.000000" stroke="none" 
	d="
M294.387848,57.031612 
	C301.254272,56.672375 307.830505,57.121796 314.034241,55.809860 
	C322.665833,53.984482 331.005005,50.794060 339.499451,48.290180 
	C341.772491,47.620167 344.155121,47.322090 346.487457,46.853260 
	C346.799316,47.247257 347.111176,47.641254 347.423035,48.035252 
	C345.778931,49.719482 344.428406,52.019394 342.434540,52.970028 
	C336.923401,55.597607 331.637665,58.509689 325.628235,60.424633 
	C317.430878,63.036785 309.535339,61.226200 301.557312,61.853210 
	C298.987701,62.055164 296.263947,60.604733 293.680115,59.709911 
	C293.481232,59.641026 293.834747,57.977097 294.387848,57.031612 
z"/>
<path fill="#333333" opacity="1.000000" stroke="none" 
	d="
M324.321228,75.387253 
	C321.717438,78.118584 319.791260,81.382805 316.945038,82.802597 
	C306.032013,88.246399 294.359924,87.935020 282.658691,85.932266 
	C281.903412,85.802994 281.299988,84.786484 279.720001,83.371201 
	C297.527588,82.847519 312.840698,78.602669 326.336365,68.693153 
	C326.787628,69.040642 327.238861,69.388123 327.690125,69.735611 
	C326.652191,71.514755 325.614258,73.293900 324.321228,75.387253 
z"/>
<path fill="#333333" opacity="1.000000" stroke="none" 
	d="
M523.715820,145.981308 
	C515.986755,145.049286 513.383606,139.491089 510.896088,132.366623 
	C513.485107,132.734467 515.899109,132.518997 517.698486,133.468460 
	C520.186218,134.781128 522.086731,137.156448 524.459778,138.746933 
	C529.358276,142.030136 529.378479,142.832855 523.715820,145.981308 
z"/>
<path fill="#333333" opacity="1.000000" stroke="none" 
	d="
M497.908752,19.583698 
	C497.014435,19.643764 495.483002,19.280489 495.486145,18.931082 
	C495.522034,14.959040 495.792389,10.989112 496.000275,6.592769 
	C497.222473,5.163343 498.444366,4.159768 500.653290,2.345530 
	C500.168854,8.735985 500.949554,14.168554 497.908752,19.583698 
z"/>
<path fill="#FFFFFF" opacity="1.000000" stroke="none" 
	d="
M421.546600,264.975555 
	C416.613556,264.995605 412.142334,264.995605 406.870941,264.995605 
	C409.548737,246.645737 412.183319,228.591919 414.945068,209.666550 
	C415.857147,211.085220 416.720245,211.835678 416.820282,212.676910 
	C417.627838,219.467575 418.372925,226.268143 418.974854,233.080032 
	C419.480194,238.798523 418.515167,245.023849 420.502502,250.128891 
	C422.503876,255.270004 421.496887,260.045258 421.546600,264.975555 
z"/>
<path fill="#FFFFFF" opacity="1.000000" stroke="none" 
	d="
M238.001190,283.167175 
	C234.491196,283.481934 230.981216,283.796722 227.213638,284.134583 
	C227.213638,274.559082 227.213638,265.478455 227.213638,256.432098 
	C238.225998,254.194473 249.036346,265.709625 244.562347,276.572906 
	C242.090286,279.063904 240.045731,281.115540 238.001190,283.167175 
z"/>
<path fill="#FFFFFF" opacity="1.000000" stroke="none" 
	d="
M241.667053,216.628265 
	C236.979813,218.659225 232.556625,220.388824 227.316803,222.437744 
	C227.316803,212.707108 227.316803,204.515991 227.316803,196.327530 
	C235.507019,195.650238 240.418091,199.749741 243.305832,206.299377 
	C245.247681,210.703598 241.450317,212.936234 241.667053,216.628265 
z"/>
<path fill="#333333" opacity="1.000000" stroke="none" 
	d="
M238.067703,283.506500 
	C240.045731,281.115540 242.090286,279.063904 244.513214,276.982666 
	C247.349243,279.835785 249.806885,282.718506 252.264526,285.601227 
	C247.227142,285.001984 241.954193,288.916534 238.067703,283.506500 
z"/>
<path fill="#FFFFFF" opacity="1.000000" stroke="none" 
	d="
M110.000641,381.319855 
	C110.000267,384.600250 110.370728,387.491058 109.846741,390.209473 
	C109.574150,391.623688 107.722847,392.733643 106.584671,393.981018 
	C105.724243,392.843475 104.239555,391.766754 104.121758,390.556885 
	C103.783737,387.085297 103.791359,383.542267 104.085732,380.063049 
	C104.230598,378.350708 105.308678,376.717346 105.964447,375.048248 
	C107.103294,376.078339 108.385010,376.995422 109.324615,378.183136 
	C109.845306,378.841339 109.793999,379.952026 110.000641,381.319855 
z"/>
<path fill="#FFFFFF" opacity="1.000000" stroke="none" 
	d="
M449.918518,378.219543 
	C450.919708,376.996857 451.853333,376.188995 452.786926,375.381134 
	C453.541962,376.272583 454.913116,377.139282 454.950134,378.059601 
	C455.160492,383.287659 455.052032,388.528534 455.052032,393.876892 
	C453.170197,393.876892 451.882782,393.876892 449.161713,393.876892 
	C449.395233,388.712433 449.623077,383.673401 449.918518,378.219543 
z"/>
<path fill="#FFFFFF" opacity="1.000000" stroke="none" 
	d="
M330.000244,388.725586 
	C330.035675,392.283875 329.873505,396.483185 326.494293,396.502472 
	C322.798248,396.523621 322.899902,392.316101 322.987518,389.167328 
	C323.051819,386.856750 322.744843,384.507172 323.062805,382.239380 
	C323.487274,379.211700 324.356934,376.246368 325.035370,373.254272 
	C325.891785,373.173737 326.748169,373.093231 327.604584,373.012726 
	C328.403320,375.619476 329.483063,378.180389 329.917633,380.846497 
	C330.311005,383.259888 330.000427,385.787994 330.000244,388.725586 
z"/>
</svg>